<svg xmlns="http://www.w3.org/2000/svg" width="795" height="902" fill="none" viewBox="0 0 795 902">
    <path stroke="#DDD" stroke-miterlimit="10" d="M791.637 457.085c-12.997-89.57-33.396-168.304-105.062-228.799-34.479-29.074-69.139-54.897-96.036-91.736-18.774-25.824-33.215-54.898-54.156-79.276-120.406-138.869-314.463 9.57-412.485 99.32C66.674 208.963 24.793 270.723 8.005 347.471c-18.955 86.68 3.43 170.651 7.943 257.511 3.79 71.872 2.708 154.038 48.198 214.352C114.511 886.15 208.2 901.5 286.545 901.5c131.238 0 277.277-39.909 377.465-128.034 82.678-72.955 143.332-205.323 127.627-316.381z"/>
    <path stroke="#DDD" stroke-miterlimit="10" d="M632.961 260.971c-51.99-41.173-80.331-87.041-118.24-139.771-33.576-46.59-80.15-73.678-138.819-63.204-62.64 11.015-109.936 63.385-157.412 101.488-49.823 39.909-114.449 72.775-149.65 127.672-31.41 48.938-39.715 116.476-35.202 173.36 5.777 71.691 14.803 146.814 24.37 218.325 18.233 137.243 125.1 193.043 255.435 193.043 147.303 0 306.34-66.274 385.227-194.307 90.079-146.453 69.499-310.062-65.709-416.606z"/>
    <path stroke="#DDD" stroke-miterlimit="10" d="M593.247 301.603c-75.276-51.647-140.263-219.228-252.185-163.428-48.559 24.198-83.219 72.956-129.071 102.391-50.004 32.143-101.451 53.633-125.46 112.142-19.677 48.035-16.428 103.293-7.04 153.134 10.47 55.981 13.538 112.684 22.925 168.845C121.19 787.01 210.186 838.115 319.58 838.115c138.097 0 280.166-58.689 348.402-184.014 69.68-127.853 48.74-269.611-74.735-352.498z"/>
    <path stroke="#DDD" stroke-miterlimit="10" d="M562.559 374.558c-74.013-50.382-159.037-113.587-249.477-77.831-66.973 26.185-151.636 42.437-169.507 124.241-6.318 28.713-.181 54.897 4.513 83.61 7.943 47.494 8.123 93 12.275 140.855 8.665 100.404 82.678 147.717 179.075 147.898 111.56 0 230.342-52.37 277.818-157.65 42.061-93.18 35.743-200.266-54.697-261.123z"/>
    <path stroke="#DDD" stroke-miterlimit="10" d="M439.987 468.642c-88.094 0-163.912 52.189-183.949 139.049-18.413 80.179 22.745 131.826 108.672 131.826 79.248 0 173.118-48.397 194.058-130.201 21.482-83.068-38.09-140.674-118.781-140.674z"/>
</svg>
