<svg xmlns="http://www.w3.org/2000/svg" width="1440" height="901" fill="none" viewBox="0 0 1440 901">
    <path fill="#fff" d="M0 51.824h1440v765H0z"/>
    <path stroke="#DDD" stroke-miterlimit="10" d="M466.374 873.502c94.077 22.999 260.588 58.051 334.866-27.55 33.081-38.127 33.696-98.269 54.602-142.791 27.916-59.281 76.737-109.584 113.139-163.576 70.339-104.05 137.119-179.811 239.069-253.851 53.49-38.865 203.77-214.248 64.07-241.92-47.47-9.348-135.03 44.522-178.56 61.617-68.62 26.935-134.786 53.87-199.964 88.43-113.139 60.019-214.841 135.657-316.912 212.895-57.307 43.292-113.262 111.92-192.582 105.648-57.676-4.551-87.929-47.228-133.061-74.778-154.582-94.333-140.563 103.189-140.563 206.992 0 84.986 82.149 112.043 144.006 141.069 72.557 33.945 132.201 68.382 211.89 87.815z"/>
    <path stroke="#DDD" stroke-miterlimit="10" d="M666.581 873.624c117.443-5.534 124.699-78.59 160.485-170.709 34.925-89.783 110.802-177.228 169.831-253.728 66.403-85.97 165.163-146.849 227.263-233.803 78.95-110.445-2.83-121.76-99.74-91.75-106.74 33.084-170.688 76.991-261.076 137.502-87.56 58.543-186.064 95.44-269.197 162.838-76.491 61.987-145.358 151.155-259.235 113.274-65.67-21.892-200.207-138.733-184.588 10.331C173.32 766.5 457.397 886.415 666.581 873.624z"/>
    <path stroke="#DDD" stroke-miterlimit="10" d="M798.535 703.284c58.045-201.703 232.185-286.32 338.065-451.003 86.21-134.305-86.45-77.853-148.804-30.256-30.006 22.876-55.339 45.137-82.763 69.612-36.77 32.839-71.204 35.052-115.23 51.533-73.417 27.673-141.423 70.35-200.452 122.375-72.065 63.462-111.417 100.728-212.996 111.674-34.065 3.69-121.747-14.758-121.747 34.806 0 127.295 173.397 211.05 277.559 229.376 145.85 25.828 224.433 9.716 266.368-138.117z"/>
    <path stroke="#DDD" stroke-miterlimit="10" d="M768.651 662.82c10.699-68.013 107.236-255.818-18.2-246.348-81.657 6.149-139.579 95.809-198.362 138.117-51.527 37.143-211.89 38.004-211.89 119.054 0 117.086 190.738 151.154 273.378 149.802C726.224 821.6 751.681 764.41 768.651 662.82z"/>
    <path stroke="#DDD" stroke-miterlimit="10" d="M715.156 746.945c30.13-58.789 40.214-219.291-53.126-217.446-44.886.861-99.98 67.89-141.792 85.478-36.647 15.374-124.576 17.341-124.576 74.532 0 117.578 272.148 148.94 319.494 57.436z"/>
    <path stroke="#DDD" stroke-miterlimit="10" d="M529.092 744.362c-7.009-1.599-52.142-16.111-52.142-34.929 14.88-46.736 156.919-93.964 187.417-56.206 66.9 82.772-91.741 100.974-135.275 91.135zM223.616 197.304c-13.527 11.93-17.217 46.367-17.217 54.485 0 38.988 96.66 103.557 129.618 130.123 103.547 83.51 176.472-39.849 230.951-117.578 47.223-67.399 104.162-151.278-12.421-190.757-106.99-36.282-309.41 105.525-330.931 123.727z"/>
    <path stroke="#DDD" stroke-miterlimit="10" d="M521.59 135.933c-28.284-21.401-209.183 42.8-211.274 73.793-1.722 25.459 38.246 93.964 59.398 110.322 92.356 71.58 225.417-120.776 151.876-184.115z"/>
    <path stroke="#DDD" stroke-miterlimit="10" d="M401.442 252.527c17.094 49.81 72.311 9.716 76.615-26.197 9.1-75.147-76.615-19.064-76.615 26.197z"/>
    <path stroke="#DDD" stroke-miterlimit="10" d="M590.458 343.17c86.329-84.494 238.329-166.036 116.459-294.683C593.778-71.06 333.928 61.4 225.954 135.809c-31.236 21.524-107.482 70.597-109.573 115.119-2.828 57.928 112.278 101.958 148.926 131.968 35.54 29.148 54.355 65.307 104.038 73.67 84.116 14.39 166.88-60.387 221.113-113.396z"/>
</svg>
