<svg xmlns="http://www.w3.org/2000/svg" width="92" height="10" fill="none" viewBox="0 0 92 10">
    <path fill="#BBB" d="M0 4.694c0-1.72 1.079-2.887 2.682-2.887 1.662 0 2.682 1.196 2.682 2.887 0 1.72-1.05 2.886-2.682 2.886S0 6.385 0 4.694zm2.682-1.895c-1.079 0-1.545.758-1.545 1.895s.525 1.895 1.545 1.895c1.05 0 1.575-.758 1.575-1.895s-.525-1.895-1.575-1.895zM11.75 4.694c0 1.632-.963 2.886-2.479 2.886-.612 0-1.137-.204-1.516-.525v2.828H6.676v-7.93h.933v.496c.408-.408.933-.642 1.604-.642 1.574 0 2.536 1.225 2.536 2.887zm-1.138 0c0-1.08-.495-1.925-1.545-1.925-.991 0-1.458.788-1.458 1.925s.438 1.924 1.487 1.924c1.02 0 1.516-.846 1.516-1.924zM15.423 6.589c.641 0 1.166-.292 1.428-.875l1.05.32c-.408.992-1.37 1.546-2.42 1.546-1.69 0-2.74-1.195-2.74-2.828 0-1.779 1.05-2.945 2.682-2.945 1.778 0 2.653 1.312 2.536 3.178h-4.081c.087.991.612 1.604 1.545 1.604zm-1.516-2.45h2.974c-.088-.874-.496-1.399-1.458-1.399-.904 0-1.37.554-1.516 1.4zM24.052 4.781v2.653h-1.078V4.81c0-.7-.088-1.34-.496-1.69-.233-.205-.554-.321-.962-.292-.291.029-.583.116-.787.291-.233.175-.38.467-.437.817-.059.291-.059.729-.059 1.108v2.39h-1.078v-5.48h.932v.67l.175-.204c.35-.409.904-.583 1.4-.613.583-.029 1.195.059 1.69.496.671.612.73 1.574.7 2.478zM26.735 0v1.02h-1.08V0h1.08zm-1.05 7.434h1.079v-5.48h-1.079v5.48zM33.382 4.781v2.653h-1.079V4.81c0-.7-.087-1.34-.495-1.69-.234-.205-.554-.321-.963-.292-.291.029-.583.116-.787.291-.233.175-.379.467-.437.817-.058.291-.058.729-.058 1.108v2.39h-1.08v-5.48h.934v.67l.175-.204c.35-.409.904-.583 1.4-.613.582-.029 1.195.059 1.69.496.642.612.7 1.574.7 2.478zM39.65 1.953V7.58c0 .292-.029.554-.058.787C39.359 9.475 38.455 10 37.172 10c-.904 0-1.75-.408-2.157-1.195l.962-.496c.233.467.729.67 1.195.67.904 0 1.428-.495 1.428-1.428v-.525c-.379.35-.903.525-1.516.525-1.516 0-2.478-1.254-2.478-2.886 0-1.662.962-2.887 2.508-2.887.67 0 1.224.234 1.632.642v-.467h.904zm-.933 2.74c0-1.136-.466-1.923-1.458-1.923-1.05 0-1.545.845-1.545 1.924s.496 1.924 1.516 1.924c1.05 0 1.487-.787 1.487-1.924zM49.68 4.577c0 1.633-.963 2.886-2.479 2.886-.612 0-1.137-.204-1.516-.524v2.828h-1.079v-7.93h.933v.495c.409-.408.933-.641 1.604-.641 1.574-.03 2.536 1.224 2.536 2.886zm-1.138 0c0-1.079-.495-1.924-1.545-1.924-.991 0-1.458.787-1.458 1.924s.438 1.924 1.487 1.924c1.02 0 1.516-.845 1.516-1.924zM54.49 7.318V6.53c-.467.642-1.079.933-2.012.933-1.078 0-1.807-.67-1.807-1.69 0-.759.408-1.283 1.108-1.517.728-.262 1.661-.379 2.594-.495-.029-.758-.525-1.108-1.195-1.108-.612 0-1.137.233-1.341.845l-.962-.291c.32-.904 1.137-1.516 2.332-1.516 1.108 0 1.837.495 2.1 1.37.087.262.116.583.116.933v3.324h-.933zm-.117-2.683c-.816.117-1.312.175-1.837.321-.495.146-.845.38-.845.816 0 .438.35.817.962.817.642 0 1.225-.292 1.487-.817.233-.32.233-.816.233-1.137zM58.455 5.102c0 .437-.03.758.116.991.146.233.38.35.613.38.291.028.612 0 .903-.03v.904c-.408.087-1.02.087-1.399.029-.496-.087-.846-.262-1.079-.7-.262-.408-.204-.904-.204-1.516V2.682h-1.05v-.845h1.05V.29h1.05v1.516h1.632v.846h-1.632v2.449zM66.356 4.636v2.653h-1.08V4.665c0-.7-.087-1.341-.495-1.691-.233-.204-.554-.32-.962-.292-.291.03-.583.117-.787.292-.233.175-.379.466-.437.816-.059.292-.059.729-.059 1.108v2.42h-1.078V0h.933v2.507l.175-.204c.35-.408.903-.583 1.399-.612.583-.03 1.195.058 1.69.496.642.583.7 1.545.7 2.449zM74.985 1.836l-1.661 5.482h-.904l-1.225-3.966-1.282 3.966h-.846l-1.72-5.51h1.05l1.136 3.76 1.167-3.76h.903l1.138 3.76 1.166-3.76h1.078v.028zM79.3 7.318V6.53c-.466.642-1.079.933-2.011.933-1.08 0-1.808-.67-1.808-1.69 0-.759.408-1.283 1.108-1.517.729-.262 1.662-.379 2.594-.495-.029-.758-.524-1.108-1.195-1.108-.612 0-1.137.233-1.34.845l-.963-.291c.32-.904 1.137-1.516 2.332-1.516 1.108 0 1.837.495 2.1 1.37.087.262.116.583.116.933v3.324H79.3zm-.117-2.683c-.816.117-1.312.175-1.836.321-.496.146-.846.38-.846.816 0 .438.35.817.962.817.642 0 1.225-.292 1.487-.817.233-.32.233-.816.233-1.137zM86.21 1.836l-3.003 7.93h-1.02l.903-2.42v-.029l-2.215-5.451h1.108l1.603 4.11 1.545-4.11h1.079v-.03zM90.408 3.47c-.087-.555-.583-.846-1.195-.875-.612-.03-1.079.233-1.079.641 0 .32.263.496.7.641.262.088.554.175 1.02.263 1.079.262 1.662.67 1.662 1.603 0 1.108-.933 1.72-2.187 1.72-1.282 0-2.244-.495-2.448-1.69l1.078-.175c.146.64.73.932 1.4.932.583 0 1.05-.262 1.05-.728 0-.438-.35-.583-.846-.73l-1.225-.35c-.758-.203-1.283-.64-1.283-1.428 0-1.078 1.02-1.603 2.129-1.603 1.195 0 2.157.583 2.303 1.603l-1.079.175z"/>
</svg>
